# xmcd CD database file
#
# Track frame offsets:
#	150
#	21928
#	42928
#	62890
#	81098
#	106374
#	124765
#	150001
#	169668
#	184887
#
# Disc length: 2798 seconds
#
# Revision: 0
# Processed by: cddbd v1.5.1PL0 Copyright (c) Steve Scherf et al.
# Submitted via: CDex 1.51
#
DISCID=770aec0a
DTITLE=Various Artist - Divas de Cuba
DYEAR=2004
DGENRE=Salsa
TTITLE0=Lagrimas Negras_Omara Portuondo
TTITLE1=Alma_Anais Abreu
TTITLE2=Bamboleo_Bemba Colora
TTITLE3=Hoy mi Habana_Xiomara Laugart
TTITLE4=Hoy me inclino_Azucar Negra
TTITLE5=Ya no me quieres_Omara Portuondo
TTITLE6=Una decepcion_Anais Abreu
TTITLE7=Sobre una tumba una rumba_Haila
TTITLE8=Que manera de quererte_Omara Portuondo
TTITLE9=A amarme decidete_Anacaona
EXTD=YEAR: 2004
EXTT0=
EXTT1=
EXTT2=
EXTT3=
EXTT4=
EXTT5=
EXTT6=
EXTT7=
EXTT8=
EXTT9=
PLAYORDER=
